<mxfile host="Electron" modified="2025-05-12T22:06:25.627Z" agent="Mozilla/5.0 (Windows NT 10.0; Win64; x64) AppleWebKit/537.36 (KHTML, like Gecko) draw.io/22.1.18 Chrome/120.0.6099.199 Electron/28.1.2 Safari/537.36" etag="xowa-Y9838mGPCs_xPmy" version="22.1.18" type="device" pages="3">
  <diagram id="wFE0QG_FPsp0jaGvCLVb" name="Начальный этап">
    <mxGraphModel dx="632" dy="718" grid="1" gridSize="10" guides="1" tooltips="1" connect="1" arrows="1" fold="1" page="1" pageScale="1" pageWidth="850" pageHeight="1100" math="0" shadow="0">
      <root>
        <mxCell id="0" />
        <mxCell id="1" parent="0" />
        <mxCell id="_5mSTuPxr-ZiKRkBDSY7-1" value="" style="swimlane;fontStyle=2;childLayout=stackLayout;horizontal=1;startSize=28;horizontalStack=1;resizeParent=1;resizeParentMax=0;resizeLast=0;collapsible=0;marginBottom=0;swimlaneFillColor=none;fontFamily=Permanent Marker;fontSize=16;points=[];verticalAlign=top;stackBorder=0;resizable=1;strokeWidth=2;sketch=1;disableMultiStroke=1;" parent="1" vertex="1">
          <mxGeometry x="185" y="110" width="520" height="390" as="geometry" />
        </mxCell>
        <object label="TO DO" status="New" id="_5mSTuPxr-ZiKRkBDSY7-2">
          <mxCell style="swimlane;strokeWidth=2;fontFamily=Permanent Marker;html=0;startSize=1;verticalAlign=bottom;spacingBottom=5;points=[];childLayout=stackLayout;stackBorder=20;stackSpacing=20;resizeLast=0;resizeParent=1;horizontalStack=0;collapsible=0;sketch=1;strokeColor=none;fillStyle=solid;fillColor=#A0522D;" parent="_5mSTuPxr-ZiKRkBDSY7-1" vertex="1">
            <mxGeometry y="28" width="120" height="362" as="geometry" />
          </mxCell>
        </object>
        <object label="DOING" status="In progress" id="_5mSTuPxr-ZiKRkBDSY7-6">
          <mxCell style="swimlane;strokeWidth=2;fontFamily=Permanent Marker;html=0;startSize=1;verticalAlign=bottom;spacingBottom=5;points=[];childLayout=stackLayout;stackBorder=20;stackSpacing=20;resizeLast=0;resizeParent=1;horizontalStack=0;collapsible=0;sketch=1;strokeColor=none;fillStyle=solid;fillColor=#006600;" parent="_5mSTuPxr-ZiKRkBDSY7-1" vertex="1">
            <mxGeometry x="120" y="28" width="110" height="362" as="geometry" />
          </mxCell>
        </object>
        <object label="DONE" status="Completed" id="_5mSTuPxr-ZiKRkBDSY7-9">
          <mxCell style="swimlane;strokeWidth=2;fontFamily=Permanent Marker;html=0;startSize=1;verticalAlign=bottom;spacingBottom=5;points=[];childLayout=stackLayout;stackBorder=20;stackSpacing=20;resizeLast=0;resizeParent=1;horizontalStack=0;collapsible=0;sketch=1;strokeColor=none;fillStyle=solid;fillColor=#1BA1E2;" parent="_5mSTuPxr-ZiKRkBDSY7-1" vertex="1">
            <mxGeometry x="230" y="28" width="290" height="370" as="geometry" />
          </mxCell>
        </object>
        <object label="Распределение свободного времени на&amp;nbsp;&lt;b&gt;дополнительные курсы и факультативы&lt;/b&gt;" placeholders="1" id="eykhib4IfG4RF9k0qktC-2">
          <mxCell style="whiteSpace=wrap;html=1;strokeWidth=2;fillColor=swimlane;fontStyle=1;spacingTop=0;rounded=1;arcSize=9;points=[];sketch=1;fontFamily=Permanent Marker;hachureGap=8;fillWeight=1;" vertex="1" parent="_5mSTuPxr-ZiKRkBDSY7-9">
            <mxGeometry x="20" y="21" width="250" height="50" as="geometry" />
          </mxCell>
        </object>
        <object label="Распределение свободного времени на основной курс" placeholders="1" id="eykhib4IfG4RF9k0qktC-1">
          <mxCell style="whiteSpace=wrap;html=1;strokeWidth=2;fillColor=swimlane;fontStyle=1;spacingTop=0;rounded=1;arcSize=9;points=[];sketch=1;fontFamily=Permanent Marker;hachureGap=8;fillWeight=1;" vertex="1" parent="_5mSTuPxr-ZiKRkBDSY7-9">
            <mxGeometry x="20" y="91" width="250" height="40" as="geometry" />
          </mxCell>
        </object>
        <object label="Составление графика учебного процесса&amp;nbsp;" placeholders="1" id="_5mSTuPxr-ZiKRkBDSY7-12">
          <mxCell style="whiteSpace=wrap;html=1;strokeWidth=2;fillColor=swimlane;fontStyle=1;spacingTop=0;rounded=1;arcSize=9;points=[];sketch=1;fontFamily=Permanent Marker;hachureGap=8;fillWeight=1;" parent="_5mSTuPxr-ZiKRkBDSY7-9" vertex="1">
            <mxGeometry x="20" y="151" width="250" height="40" as="geometry" />
          </mxCell>
        </object>
        <object label="Ознакомиться с дисциплинами курса, сроками&lt;br/&gt;обучения и промежуточными аттестациями" placeholders="1" id="_5mSTuPxr-ZiKRkBDSY7-11">
          <mxCell style="whiteSpace=wrap;html=1;strokeWidth=2;fillColor=swimlane;fontStyle=1;spacingTop=0;rounded=1;arcSize=9;points=[];sketch=1;fontFamily=Permanent Marker;hachureGap=8;fillWeight=1;" parent="_5mSTuPxr-ZiKRkBDSY7-9" vertex="1">
            <mxGeometry x="20" y="211" width="250" height="80" as="geometry" />
          </mxCell>
        </object>
        <object label="Организовать рабочее место" placeholders="1" id="_5mSTuPxr-ZiKRkBDSY7-10">
          <mxCell style="whiteSpace=wrap;html=1;strokeWidth=2;fillColor=swimlane;fontStyle=1;spacingTop=0;rounded=1;arcSize=9;points=[];sketch=1;fontFamily=Permanent Marker;hachureGap=8;fillWeight=1;" parent="_5mSTuPxr-ZiKRkBDSY7-9" vertex="1">
            <mxGeometry x="20" y="311" width="250" height="39" as="geometry" />
          </mxCell>
        </object>
        <mxCell id="eykhib4IfG4RF9k0qktC-21" value="&lt;h1 style=&quot;line-height: 0%;&quot;&gt;&lt;span style=&quot;background-color: initial; font-size: 20px;&quot;&gt;&lt;font style=&quot;font-size: 20px;&quot;&gt;Начальный этап обучения&lt;/font&gt;&lt;/span&gt;&lt;/h1&gt;&lt;h1 style=&quot;line-height: 0%;&quot;&gt;&lt;span style=&quot;background-color: initial; font-weight: normal;&quot;&gt;&lt;font size=&quot;1&quot; style=&quot;&quot;&gt;&lt;i style=&quot;font-size: 14px;&quot;&gt;(срок выполнения до 1 недели)&lt;/i&gt;&lt;/font&gt;&lt;/span&gt;&lt;br&gt;&lt;/h1&gt;" style="text;html=1;strokeColor=none;fillColor=none;spacing=-8;spacingTop=-20;whiteSpace=wrap;overflow=hidden;rounded=0;fontSize=20;fontFamily=Architects Daughter;align=center;verticalAlign=middle;" vertex="1" parent="1">
          <mxGeometry x="150" y="50" width="590" height="50" as="geometry" />
        </mxCell>
      </root>
    </mxGraphModel>
  </diagram>
  <diagram id="GYk8mVjEtj72kzlQus-n" name="1 курс">
    <mxGraphModel dx="1063" dy="600" grid="1" gridSize="10" guides="1" tooltips="1" connect="1" arrows="1" fold="1" page="1" pageScale="1" pageWidth="190" pageHeight="300" math="0" shadow="0">
      <root>
        <mxCell id="0" />
        <mxCell id="1" parent="0" />
        <mxCell id="A10irp6VYB-B8xnLeqkb-1" value="" style="swimlane;fontStyle=2;childLayout=stackLayout;horizontal=1;startSize=28;horizontalStack=1;resizeParent=1;resizeParentMax=0;resizeLast=0;collapsible=0;marginBottom=0;swimlaneFillColor=none;fontFamily=Permanent Marker;fontSize=16;points=[];verticalAlign=top;stackBorder=0;resizable=1;strokeWidth=2;sketch=1;disableMultiStroke=1;" vertex="1" parent="1">
          <mxGeometry x="95" y="140" width="690" height="260" as="geometry" />
        </mxCell>
        <object label="TO DO" status="New" id="A10irp6VYB-B8xnLeqkb-2">
          <mxCell style="swimlane;strokeWidth=2;fontFamily=Permanent Marker;html=0;startSize=1;verticalAlign=bottom;spacingBottom=5;points=[];childLayout=stackLayout;stackBorder=20;stackSpacing=20;resizeLast=0;resizeParent=1;horizontalStack=0;collapsible=0;sketch=1;strokeColor=none;fillStyle=solid;fillColor=#A0522D;" vertex="1" parent="A10irp6VYB-B8xnLeqkb-1">
            <mxGeometry y="28" width="120" height="232" as="geometry" />
          </mxCell>
        </object>
        <object label="DOING" status="In progress" id="A10irp6VYB-B8xnLeqkb-3">
          <mxCell style="swimlane;strokeWidth=2;fontFamily=Permanent Marker;html=0;startSize=1;verticalAlign=bottom;spacingBottom=5;points=[];childLayout=stackLayout;stackBorder=20;stackSpacing=20;resizeLast=0;resizeParent=1;horizontalStack=0;collapsible=0;sketch=1;strokeColor=none;fillStyle=solid;fillColor=#006600;" vertex="1" parent="A10irp6VYB-B8xnLeqkb-1">
            <mxGeometry x="120" y="28" width="280" height="232" as="geometry" />
          </mxCell>
        </object>
        <object label="Прохождение дисциплин дополнительных курсов и факультативов&amp;nbsp;" placeholders="1" id="A10irp6VYB-B8xnLeqkb-7">
          <mxCell style="whiteSpace=wrap;html=1;strokeWidth=2;fillColor=#d5e8d4;fontStyle=1;spacingTop=0;rounded=1;arcSize=9;points=[];sketch=1;fontFamily=Permanent Marker;hachureGap=8;fillWeight=1;strokeColor=#82b366;" vertex="1" parent="A10irp6VYB-B8xnLeqkb-3">
            <mxGeometry x="20" y="21" width="240" height="40" as="geometry" />
          </mxCell>
        </object>
        <object label="Поиск дополнительных источников информации&amp;nbsp;" placeholders="1" id="A10irp6VYB-B8xnLeqkb-6">
          <mxCell style="whiteSpace=wrap;html=1;strokeWidth=2;fillColor=#f5f5f5;fontStyle=1;spacingTop=0;rounded=1;arcSize=9;points=[];sketch=1;fontFamily=Permanent Marker;hachureGap=8;fillWeight=1;strokeColor=#666666;fontColor=#333333;" vertex="1" parent="A10irp6VYB-B8xnLeqkb-3">
            <mxGeometry x="20" y="81" width="240" height="40" as="geometry" />
          </mxCell>
        </object>
        <object label="DONE" status="Completed" id="A10irp6VYB-B8xnLeqkb-4">
          <mxCell style="swimlane;strokeWidth=2;fontFamily=Permanent Marker;html=0;startSize=1;verticalAlign=bottom;spacingBottom=5;points=[];childLayout=stackLayout;stackBorder=20;stackSpacing=20;resizeLast=0;resizeParent=1;horizontalStack=0;collapsible=0;sketch=1;strokeColor=none;fillStyle=solid;fillColor=#1BA1E2;" vertex="1" parent="A10irp6VYB-B8xnLeqkb-1">
            <mxGeometry x="400" y="28" width="290" height="232" as="geometry" />
          </mxCell>
        </object>
        <object label="Прохождение дисциплин основного курса&amp;nbsp;" placeholders="1" id="A10irp6VYB-B8xnLeqkb-5">
          <mxCell style="whiteSpace=wrap;html=1;strokeWidth=2;fillColor=#f8cecc;fontStyle=1;spacingTop=0;rounded=1;arcSize=9;points=[];sketch=1;fontFamily=Permanent Marker;hachureGap=8;fillWeight=1;strokeColor=#b85450;" vertex="1" parent="A10irp6VYB-B8xnLeqkb-4">
            <mxGeometry x="20" y="21" width="250" height="50" as="geometry" />
          </mxCell>
        </object>
        <object label="Выполнение Теста по Итоговой аттестации «Итоговое тестирование по освоению специализации «Программист»&amp;nbsp;" placeholders="1" id="A10irp6VYB-B8xnLeqkb-8">
          <mxCell style="whiteSpace=wrap;html=1;strokeWidth=2;fillColor=#dae8fc;fontStyle=1;spacingTop=0;rounded=1;arcSize=9;points=[];sketch=1;fontFamily=Permanent Marker;hachureGap=8;fillWeight=1;strokeColor=#6c8ebf;" vertex="1" parent="A10irp6VYB-B8xnLeqkb-4">
            <mxGeometry x="20" y="91" width="250" height="59" as="geometry" />
          </mxCell>
        </object>
        <object label="Выполнение Итоговой контрольной работы по блоку «Специализация»&lt;br/&gt;для завершения 1 курса обучения" placeholders="1" id="A10irp6VYB-B8xnLeqkb-9">
          <mxCell style="whiteSpace=wrap;html=1;strokeWidth=2;fillColor=#dae8fc;fontStyle=1;spacingTop=0;rounded=1;arcSize=9;points=[];sketch=1;fontFamily=Permanent Marker;hachureGap=8;fillWeight=1;strokeColor=#6c8ebf;" vertex="1" parent="A10irp6VYB-B8xnLeqkb-4">
            <mxGeometry x="20" y="170" width="250" height="50" as="geometry" />
          </mxCell>
        </object>
        <mxCell id="Tjaezrdud4f5bVD3t2SV-1" value="&lt;font style=&quot;font-size: 20px;&quot;&gt;&lt;b&gt;Основная программа обучения&lt;br&gt;&lt;/b&gt;&lt;/font&gt;&lt;font face=&quot;Times New Roman&quot;&gt;&lt;i style=&quot;background-color: initial;&quot;&gt;(&lt;/i&gt;&lt;span style=&quot;background-color: initial;&quot;&gt;&lt;font style=&quot;font-size: 16px;&quot;&gt;&lt;i&gt;1 курс – 1 год обучения&lt;/i&gt;&lt;/font&gt;&lt;/span&gt;&lt;i style=&quot;background-color: initial;&quot;&gt;)&lt;/i&gt;&lt;/font&gt;&lt;b&gt;&lt;font style=&quot;font-size: 20px;&quot;&gt;&lt;br&gt;&lt;/font&gt;&lt;/b&gt;" style="text;html=1;strokeColor=none;fillColor=none;spacing=-8;spacingTop=-20;whiteSpace=wrap;overflow=hidden;rounded=0;fontSize=20;fontFamily=Architects Daughter;align=center;verticalAlign=middle;" vertex="1" parent="1">
          <mxGeometry x="220" y="30" width="350" height="50" as="geometry" />
        </mxCell>
        <object label="Ускоренный! Важно!" placeholders="1" id="Tjaezrdud4f5bVD3t2SV-2">
          <mxCell style="whiteSpace=wrap;html=1;strokeWidth=2;fillColor=#f8cecc;fontStyle=1;spacingTop=0;rounded=1;arcSize=9;points=[];sketch=1;fontFamily=Permanent Marker;hachureGap=8;fillWeight=1;strokeColor=#b85450;" vertex="1" parent="1">
            <mxGeometry x="570" y="10" width="140" height="20" as="geometry" />
          </mxCell>
        </object>
        <object label="Стандартный" placeholders="1" id="Tjaezrdud4f5bVD3t2SV-5">
          <mxCell style="whiteSpace=wrap;html=1;strokeWidth=2;fillColor=#d5e8d4;fontStyle=1;spacingTop=0;rounded=1;arcSize=9;points=[];sketch=1;fontFamily=Permanent Marker;hachureGap=8;fillWeight=1;strokeColor=#82b366;" vertex="1" parent="1">
            <mxGeometry x="570" y="40" width="140" height="20" as="geometry" />
          </mxCell>
        </object>
        <object label="Нематериальный" placeholders="1" id="Tjaezrdud4f5bVD3t2SV-6">
          <mxCell style="whiteSpace=wrap;html=1;strokeWidth=2;fillColor=#f5f5f5;fontStyle=1;spacingTop=0;rounded=1;arcSize=9;points=[];sketch=1;fontFamily=Permanent Marker;hachureGap=8;fillWeight=1;strokeColor=#666666;fontColor=#333333;" vertex="1" parent="1">
            <mxGeometry x="570" y="100" width="140" height="20" as="geometry" />
          </mxCell>
        </object>
        <object label="Фиксированная дата" placeholders="1" id="x_uYiGLBsyAJR38WjoZb-1">
          <mxCell style="whiteSpace=wrap;html=1;strokeWidth=2;fillColor=#dae8fc;fontStyle=1;spacingTop=0;rounded=1;arcSize=9;points=[];sketch=1;fontFamily=Permanent Marker;hachureGap=8;fillWeight=1;strokeColor=#6c8ebf;" vertex="1" parent="1">
            <mxGeometry x="570" y="71" width="140" height="19" as="geometry" />
          </mxCell>
        </object>
      </root>
    </mxGraphModel>
  </diagram>
  <diagram id="BXpKUFJtVsnVRjyxdhJP" name="2 курс">
    <mxGraphModel dx="1285" dy="725" grid="1" gridSize="10" guides="1" tooltips="1" connect="1" arrows="1" fold="1" page="1" pageScale="1" pageWidth="190" pageHeight="300" math="0" shadow="0">
      <root>
        <mxCell id="0" />
        <mxCell id="1" parent="0" />
        <mxCell id="54XUl7qref8d1cJhVCjl-1" value="" style="swimlane;fontStyle=2;childLayout=stackLayout;horizontal=1;startSize=28;horizontalStack=1;resizeParent=1;resizeParentMax=0;resizeLast=0;collapsible=0;marginBottom=0;swimlaneFillColor=none;fontFamily=Permanent Marker;fontSize=16;points=[];verticalAlign=top;stackBorder=0;resizable=1;strokeWidth=2;sketch=1;disableMultiStroke=1;" vertex="1" parent="1">
          <mxGeometry x="60" y="130" width="870" height="370" as="geometry" />
        </mxCell>
        <object label="TO DO" status="New" id="54XUl7qref8d1cJhVCjl-2">
          <mxCell style="swimlane;strokeWidth=2;fontFamily=Permanent Marker;html=0;startSize=1;verticalAlign=bottom;spacingBottom=5;points=[];childLayout=stackLayout;stackBorder=20;stackSpacing=20;resizeLast=0;resizeParent=1;horizontalStack=0;collapsible=0;sketch=1;strokeColor=none;fillStyle=solid;fillColor=#A0522D;" vertex="1" parent="54XUl7qref8d1cJhVCjl-1">
            <mxGeometry y="28" width="300" height="351" as="geometry" />
          </mxCell>
        </object>
        <object label="Прохождение дисциплин дополнительных курсов и факультативов&amp;nbsp;" placeholders="1" id="54XUl7qref8d1cJhVCjl-4">
          <mxCell style="whiteSpace=wrap;html=1;strokeWidth=2;fillColor=#d5e8d4;fontStyle=1;spacingTop=0;rounded=1;arcSize=9;points=[];sketch=1;fontFamily=Permanent Marker;hachureGap=8;fillWeight=1;opacity=50;strokeColor=#82b366;" vertex="1" parent="54XUl7qref8d1cJhVCjl-2">
            <mxGeometry x="20" y="21" width="260" height="40" as="geometry" />
          </mxCell>
        </object>
        <object label="Выполнение Итоговой аттестации&amp;nbsp;" placeholders="1" id="54XUl7qref8d1cJhVCjl-8">
          <mxCell style="whiteSpace=wrap;html=1;strokeWidth=2;fillColor=#dae8fc;fontStyle=1;spacingTop=0;rounded=1;arcSize=9;points=[];sketch=1;fontFamily=Permanent Marker;hachureGap=8;fillWeight=1;strokeColor=#6c8ebf;" vertex="1" parent="54XUl7qref8d1cJhVCjl-2">
            <mxGeometry x="20" y="81" width="260" height="30" as="geometry" />
          </mxCell>
        </object>
        <object label="Дипломный проект по итогу обучения" placeholders="1" id="54XUl7qref8d1cJhVCjl-9">
          <mxCell style="whiteSpace=wrap;html=1;strokeWidth=2;fillColor=#dae8fc;fontStyle=1;spacingTop=0;rounded=1;arcSize=9;points=[];sketch=1;fontFamily=Permanent Marker;hachureGap=8;fillWeight=1;strokeColor=#6c8ebf;" vertex="1" parent="54XUl7qref8d1cJhVCjl-2">
            <mxGeometry x="20" y="131" width="260" height="30" as="geometry" />
          </mxCell>
        </object>
        <object label="Стажировка&amp;nbsp;" placeholders="1" id="54XUl7qref8d1cJhVCjl-14">
          <mxCell style="whiteSpace=wrap;html=1;strokeWidth=2;fillColor=#f5f5f5;fontStyle=1;spacingTop=0;rounded=1;arcSize=9;points=[];sketch=1;fontFamily=Permanent Marker;hachureGap=8;fillWeight=1;strokeColor=#666666;fontColor=#333333;" vertex="1" parent="54XUl7qref8d1cJhVCjl-2">
            <mxGeometry x="20" y="181" width="260" height="30" as="geometry" />
          </mxCell>
        </object>
        <object label="Получить Диплом о профессиональной&lt;br/&gt;переподготовке" placeholders="1" id="54XUl7qref8d1cJhVCjl-16">
          <mxCell style="whiteSpace=wrap;html=1;strokeWidth=2;fillColor=#dae8fc;fontStyle=1;spacingTop=0;rounded=1;arcSize=9;points=[];sketch=1;fontFamily=Permanent Marker;hachureGap=8;fillWeight=1;strokeColor=#6c8ebf;" vertex="1" parent="54XUl7qref8d1cJhVCjl-2">
            <mxGeometry x="20" y="231" width="260" height="40" as="geometry" />
          </mxCell>
        </object>
        <object label="Найти подходящую работу" placeholders="1" id="wwoTVKZRxVHR6L5EeNH9-5">
          <mxCell style="whiteSpace=wrap;html=1;strokeWidth=2;fillColor=#dae8fc;fontStyle=1;spacingTop=0;rounded=1;arcSize=9;points=[];sketch=1;fontFamily=Permanent Marker;hachureGap=8;fillWeight=1;strokeColor=#6c8ebf;" vertex="1" parent="54XUl7qref8d1cJhVCjl-2">
            <mxGeometry x="20" y="291" width="260" height="40" as="geometry" />
          </mxCell>
        </object>
        <object label="DOING" status="In progress" id="54XUl7qref8d1cJhVCjl-3">
          <mxCell style="swimlane;strokeWidth=2;fontFamily=Permanent Marker;html=0;startSize=1;verticalAlign=bottom;spacingBottom=5;points=[];childLayout=stackLayout;stackBorder=20;stackSpacing=20;resizeLast=0;resizeParent=1;horizontalStack=0;collapsible=0;sketch=1;strokeColor=none;fillStyle=solid;fillColor=#006600;" vertex="1" parent="54XUl7qref8d1cJhVCjl-1">
            <mxGeometry x="300" y="28" width="280" height="342" as="geometry" />
          </mxCell>
        </object>
        <object label="Прохождение дисциплин основного курса&amp;nbsp;" placeholders="1" id="54XUl7qref8d1cJhVCjl-7">
          <mxCell style="whiteSpace=wrap;html=1;strokeWidth=2;fillColor=#f8cecc;fontStyle=1;spacingTop=0;rounded=1;arcSize=9;points=[];sketch=1;fontFamily=Permanent Marker;hachureGap=8;fillWeight=1;strokeColor=#b85450;" vertex="1" parent="54XUl7qref8d1cJhVCjl-3">
            <mxGeometry x="20" y="21" width="240" height="39" as="geometry" />
          </mxCell>
        </object>
        <object label="Поиск дополнительных источников информации&amp;nbsp;" placeholders="1" id="54XUl7qref8d1cJhVCjl-5">
          <mxCell style="whiteSpace=wrap;html=1;strokeWidth=2;fillColor=#f5f5f5;fontStyle=1;spacingTop=0;rounded=1;arcSize=9;points=[];sketch=1;fontFamily=Permanent Marker;hachureGap=8;fillWeight=1;strokeColor=#666666;fontColor=#333333;" vertex="1" parent="54XUl7qref8d1cJhVCjl-3">
            <mxGeometry x="20" y="80" width="240" height="40" as="geometry" />
          </mxCell>
        </object>
        <object label="DONE" status="Completed" id="54XUl7qref8d1cJhVCjl-6">
          <mxCell style="swimlane;strokeWidth=2;fontFamily=Permanent Marker;html=0;startSize=1;verticalAlign=bottom;spacingBottom=5;points=[];childLayout=stackLayout;stackBorder=20;stackSpacing=20;resizeLast=0;resizeParent=1;horizontalStack=0;collapsible=0;sketch=1;strokeColor=none;fillStyle=solid;fillColor=#1BA1E2;" vertex="1" parent="54XUl7qref8d1cJhVCjl-1">
            <mxGeometry x="580" y="28" width="290" height="342" as="geometry" />
          </mxCell>
        </object>
        <mxCell id="54XUl7qref8d1cJhVCjl-10" value="&lt;font style=&quot;font-size: 20px;&quot;&gt;&lt;b&gt;Технологическая&amp;nbsp;программа обучения&lt;br&gt;&lt;/b&gt;&lt;/font&gt;&lt;font face=&quot;Times New Roman&quot;&gt;&lt;i style=&quot;background-color: initial;&quot;&gt;(2&lt;/i&gt;&lt;span style=&quot;background-color: initial;&quot;&gt;&lt;font style=&quot;font-size: 16px;&quot;&gt;&lt;i&gt;&amp;nbsp;курс – 2 год обучения&lt;/i&gt;&lt;/font&gt;&lt;/span&gt;&lt;i style=&quot;background-color: initial;&quot;&gt;)&lt;/i&gt;&lt;/font&gt;&lt;b&gt;&lt;font style=&quot;font-size: 20px;&quot;&gt;&lt;br&gt;&lt;/font&gt;&lt;/b&gt;" style="text;html=1;strokeColor=none;fillColor=none;spacing=-8;spacingTop=-20;whiteSpace=wrap;overflow=hidden;rounded=0;fontSize=20;fontFamily=Architects Daughter;align=center;verticalAlign=middle;" vertex="1" parent="1">
          <mxGeometry x="210" y="30" width="350" height="50" as="geometry" />
        </mxCell>
        <object label="Ускоренный! Важно!" placeholders="1" id="wwoTVKZRxVHR6L5EeNH9-1">
          <mxCell style="whiteSpace=wrap;html=1;strokeWidth=2;fillColor=#f8cecc;fontStyle=1;spacingTop=0;rounded=1;arcSize=9;points=[];sketch=1;fontFamily=Permanent Marker;hachureGap=8;fillWeight=1;strokeColor=#b85450;" vertex="1" parent="1">
            <mxGeometry x="590" y="10" width="140" height="20" as="geometry" />
          </mxCell>
        </object>
        <object label="Стандартный" placeholders="1" id="wwoTVKZRxVHR6L5EeNH9-2">
          <mxCell style="whiteSpace=wrap;html=1;strokeWidth=2;fillColor=#d5e8d4;fontStyle=1;spacingTop=0;rounded=1;arcSize=9;points=[];sketch=1;fontFamily=Permanent Marker;hachureGap=8;fillWeight=1;strokeColor=#82b366;" vertex="1" parent="1">
            <mxGeometry x="590" y="40" width="140" height="20" as="geometry" />
          </mxCell>
        </object>
        <object label="Нематериальный" placeholders="1" id="wwoTVKZRxVHR6L5EeNH9-3">
          <mxCell style="whiteSpace=wrap;html=1;strokeWidth=2;fillColor=#f5f5f5;fontStyle=1;spacingTop=0;rounded=1;arcSize=9;points=[];sketch=1;fontFamily=Permanent Marker;hachureGap=8;fillWeight=1;strokeColor=#666666;fontColor=#333333;" vertex="1" parent="1">
            <mxGeometry x="590" y="100" width="140" height="20" as="geometry" />
          </mxCell>
        </object>
        <object label="Фиксированная дата" placeholders="1" id="wwoTVKZRxVHR6L5EeNH9-4">
          <mxCell style="whiteSpace=wrap;html=1;strokeWidth=2;fillColor=#dae8fc;fontStyle=1;spacingTop=0;rounded=1;arcSize=9;points=[];sketch=1;fontFamily=Permanent Marker;hachureGap=8;fillWeight=1;strokeColor=#6c8ebf;" vertex="1" parent="1">
            <mxGeometry x="590" y="71" width="140" height="19" as="geometry" />
          </mxCell>
        </object>
      </root>
    </mxGraphModel>
  </diagram>
</mxfile>
